<?xml version="1.0" standalone="no"?>
<!DOCTYPE svg PUBLIC "-//W3C//DTD SVG 20010904//EN"
 "http://www.w3.org/TR/2001/REC-SVG-20010904/DTD/svg10.dtd">
<svg version="1.0" xmlns="http://www.w3.org/2000/svg"
 width="260.000000pt" height="260.000000pt" viewBox="0 0 260.000000 260.000000"
 preserveAspectRatio="xMidYMid meet">
<metadata>
Created by potrace 1.11, written by Peter Selinger 2001-2013
</metadata>
<g transform="translate(0.000000,260.000000) scale(0.100000,-0.100000)"
fill="#000000" stroke="none">
<path d="M1095 2556 c-118 -20 -200 -43 -295 -84 -389 -165 -657 -492 -747
-912 -25 -119 -25 -401 0 -520 56 -259 162 -456 346 -641 185 -184 382 -290
641 -346 119 -25 401 -25 520 0 259 56 456 162 641 346 184 185 290 382 346
641 13 64 18 129 18 260 0 131 -5 196 -18 260 -56 259 -162 456 -346 641 -182
181 -380 289 -631 344 -103 22 -371 28 -475 11z m430 -51 c251 -52 452 -161
636 -344 241 -242 364 -531 364 -861 0 -330 -123 -619 -364 -861 -242 -241
-531 -364 -861 -364 -330 0 -619 123 -861 364 -241 242 -364 531 -364 861 0
493 298 934 765 1132 216 92 465 119 685 73z"/>
<path d="M1215 1985 c-19 -18 -25 -35 -26 -67 -1 -56 -7 -151 -14 -208 -2 -25
-7 -65 -10 -90 -3 -25 -11 -67 -17 -95 -7 -27 -11 -53 -10 -56 4 -18 -43 -41
-109 -53 -147 -28 -464 -45 -499 -26 -21 11 -22 17 -17 74 4 33 9 72 12 86 48
229 55 312 31 343 -15 20 -62 35 -88 30 -22 -5 -36 -45 -43 -123 -3 -36 -7
-76 -10 -90 -2 -14 -7 -52 -10 -85 -3 -33 -8 -73 -10 -90 -2 -16 -11 -84 -20
-150 -22 -161 -25 -186 -30 -215 -3 -14 -7 -41 -10 -60 -3 -19 -13 -66 -21
-105 -26 -119 -27 -147 -6 -180 25 -40 68 -63 90 -49 28 18 42 57 47 135 8
117 15 205 19 225 2 11 7 38 11 61 3 23 12 46 18 51 20 16 143 26 438 37 190
8 185 11 175 -108 -8 -101 -15 -165 -21 -193 -2 -11 -7 -51 -11 -88 -6 -61 -5
-69 16 -91 32 -34 56 -31 96 9 34 34 34 35 35 133 2 128 12 294 23 388 2 17 7
57 10 90 4 33 11 83 17 110 83 432 83 441 34 463 -39 18 -63 15 -90 -13z"/>
<path d="M1766 1811 c-9 -10 -36 -74 -60 -142 -63 -182 -49 -168 -163 -171
-105 -3 -122 -12 -110 -60 8 -31 50 -50 104 -48 21 1 44 2 51 1 16 -1 12 -35
-19 -181 -31 -144 -32 -301 -3 -350 32 -56 75 -79 142 -77 78 3 156 44 236
125 66 66 93 110 82 137 -10 27 -42 16 -101 -37 -121 -110 -187 -138 -230 -98
-50 47 -44 136 32 445 2 11 5 26 5 32 2 16 16 20 98 28 36 4 76 8 90 10 14 2
68 6 120 10 106 7 140 22 140 60 0 48 -44 52 -329 29 -69 -6 -74 -5 -67 12 35
90 82 242 78 254 -14 40 -68 52 -96 21z"/>
<path d="M2212 1004 c-18 -13 -22 -25 -22 -73 0 -101 55 -119 132 -42 43 43
50 87 20 114 -24 22 -100 22 -130 1z"/>
</g>
</svg>
